# xmcd
# Copyright (C) 1995-1998 Ti Kan
#
# Track frame offsets:
#       150
#       88840
#       202225
#
# Disc length: 3434 seconds
#
# Revision: 0
# Processed by: cddbd v1.5.2PL0 Copyright (c) Steve Scherf et al.
# Submitted via: CD-Transfer v1.0
#
DISCID=270d6803
DTITLE=Raffaello 63 - 
DYEAR=08
DGENRE=
TTITLE0=Italy 1
TTITLE1=Italy 2
TTITLE2=Italy 3
EXTD=
EXTT0=
EXTT1=
EXTT2=
PLAYORDER=
